<svg xmlns="http://www.w3.org/2000/svg" version="1.1" xmlns:xlink="http://www.w3.org/1999/xlink" xmlns:svgjs="http://svgjs.com/svgjs" width="512" height="512" x="0" y="0" viewBox="0 0 497 497" style="enable-background:new 0 0 512 512" xml:space="preserve" class=""><g><g xmlns="http://www.w3.org/2000/svg"><g><path d="m57.5 193.5-22.166-113.388c-1.226-6.596 3.124-12.939 9.72-14.17l142.446-25.442 23 121z" fill="#00afff" data-original="#fae9e6" style="" class=""></path></g><path d="m143.5 180.5 26.439-170.227c1.065-6.653 7.322-11.183 13.975-10.118l132.791 21.258c6.653 1.065 11.183 7.322 10.118 13.975l-17.323 114.112z" fill="#7561f6" data-original="#7561f6" style="" class=""></path><path d="m316.705 21.413-29.466-4.717c2.444 2.654 3.699 6.354 3.085 10.192l-20.376 129.998 39.552-7.386 17.323-114.111c1.065-6.654-3.465-12.91-10.118-13.976z" fill="#5e48f0" data-original="#5e48f0" style="" class=""></path><path d="m106.185 181.275v-72.405c0-6.738 5.462-12.2 12.2-12.2h98.011c6.738 0 12.2 5.462 12.2 12.2v48.963z" fill="#ffc600" data-original="#ffc600" style="" class=""></path><path d="m216.396 96.67h-40c6.738 0 12.2 5.462 12.2 12.2v48.963l-82.411 15.782v7.66l122.411-23.442v-48.963c0-6.738-5.462-12.2-12.2-12.2z" fill="#ffb300" data-original="#ffb300" style="" class=""></path><path d="m353.348 356.424-66.957 56.025c-6.336 5.301-14.325 8.205-22.575 8.205h-223.369c-9.455 0-17.12 7.689-17.12 17.173 0 9.485 7.665 17.173 17.12 17.173l297.053.429z" fill="#ffc600" data-original="#ffc600" style="" class=""></path><path d="m390.005 119.03-372.475 69.771c-11.63 1.768-19.429 12.923-17.126 24.494l22.8 114.553c3.307 16.615 17.847 28.576 34.737 28.576h295.407z" fill="#ffc600" data-original="#e9e8ff" style="" class=""></path><path d="m348.814 126.746-35.466 229.678h40l36.657-237.394z" fill="#ffc600" data-original="#dfdeff" style="" class=""></path><g><g><path d="m342.598 431.185c-.382 0-.769-.029-1.159-.089-4.093-.635-6.897-4.468-6.262-8.561l51.743-333.387c3.205-20.666 20.671-35.665 41.532-35.665 4.142 0 7.5 3.358 7.5 7.5s-3.358 7.5-7.5 7.5c-13.413 0-24.646 9.658-26.709 22.964l-51.743 333.386c-.575 3.704-3.768 6.352-7.402 6.352z" fill="#00afff" data-original="#fae9e6" style="" class=""></path></g></g><g><g><g><ellipse cx="112.199" cy="455.429" fill="#7561f6" rx="41.442" ry="41.571" data-original="#7561f6" style="" class=""></ellipse><ellipse cx="344.201" cy="455.429" fill="#7561f6" rx="41.442" ry="41.571" data-original="#7561f6" style="" class=""></ellipse><g><path d="m112.199 462.929c9.652 0 9.668-15 0-15-9.652 0-9.668 15 0 15z" fill="#00afff" data-original="#fae9e6" style="" class=""></path></g><g><path d="m344.201 462.929c9.652 0 9.668-15 0-15-9.652 0-9.668 15 0 15z" fill="#00afff" data-original="#fae9e6" style="" class=""></path></g></g><path d="m428.452 53.483h51.428c9.455 0 17.12 7.689 17.12 17.173 0 9.485-7.665 17.173-17.12 17.173h-34.796c-9.186 0-16.632-7.47-16.632-16.684z" fill="#ffc600" data-original="#ffc600" style="" class=""></path></g><g><path d="m317.5 316h-254c-4.142 0-7.5-3.358-7.5-7.5s3.358-7.5 7.5-7.5h254c4.142 0 7.5 3.358 7.5 7.5s-3.358 7.5-7.5 7.5z" fill="#ffffff" data-original="#ffffff" style="" class=""></path></g><g><path d="m325.5 276h-272c-4.142 0-7.5-3.358-7.5-7.5s3.358-7.5 7.5-7.5h272c4.142 0 7.5 3.358 7.5 7.5s-3.358 7.5-7.5 7.5z" fill="#ffffff" data-original="#ffffff" style="" class=""></path></g></g></g></g></svg>